<svg version="1.1" xmlns="http://www.w3.org/2000/svg">
  <path id="Spline" d="M35,06836,0,2750092C31,78278,-0,2174047,26,35502,1,343493,25,21162,-1,202232C24,06821,-3,747958,29,844,-12,32275,28,20791,-14,99934C26,57182,-17,67593,17,74676,-20,89675,15,39507,-17,26176C13,04339,-13,62678,12,45842,2,725927,14,09779,6,810547C15,73716,10,89517,24,64034,2,744988,25,23129,7,245956C25,82224,11,74693,21,14258,29,31055,17,64349,33,81636C14,14439,38,32217,7,405071,32,69037,4,236744,34,28082C1,068417,35,87127,1,796986,41,93375,-1,366478,43,35905C-4,529943,44,78434,-12,40915,44,37987,-14,74404,42,83258C-17,07893,41,28529,-16,78635,35,93565,-15,3758,34,07529C-13,96524,32,21494,-7,826658,36,37531,-6,280724,31,67043C-4,734789,26,96555,-4,668154,10,48703,-6,100189,5,846008C-7,532224,1,20499,-13,20951,5,460058,-14,87293,3,824318C-16,53635,2,188578,-17,75855,-2,087261,-16,0807,-3,968433C-14,40286,-5,849606,-5,974358,-5,07741,-4,805878,-7,462715C-3,637397,-9,848021,-6,615306,-16,69931,-9,06982,-18,28027C-11,52433,-19,86123,-16,98662,-20,13099,-19,53296,-16,94847C-22,07931,-13,76595,-21,94631,-2,251596,-24,34788,0,8148689C-26,74945,3,881334,-30,74422,1,238504,-33,94238,1,450321" stroke="black" stroke-width="3" fill="none" />
</svg>